<svg width="8" height="8" viewBox="0 0 8 8" fill="none" xmlns="http://www.w3.org/2000/svg">
<path d="M5.42159 4L7.55376 1.86783C7.81541 1.60618 7.81541 1.18196 7.55376 0.920099L7.0799 0.446236C6.81825 0.184588 6.39403 0.184588 6.13217 0.446236L4 2.57841L1.86783 0.446236C1.60618 0.184588 1.18196 0.184588 0.920099 0.446236L0.446236 0.920099C0.184588 1.18175 0.184588 1.60597 0.446236 1.86783L2.57841 4L0.446236 6.13217C0.184588 6.39382 0.184588 6.81804 0.446236 7.0799L0.920099 7.55376C1.18175 7.81541 1.60618 7.81541 1.86783 7.55376L4 5.42159L6.13217 7.55376C6.39382 7.81541 6.81825 7.81541 7.0799 7.55376L7.55376 7.0799C7.81541 6.81825 7.81541 6.39403 7.55376 6.13217L5.42159 4Z" fill="white"/>
</svg>
