<svg viewBox="140.651 153.295 60.203 60.01" width="60.203" height="60.01" fill="none" xmlns="http://www.w3.org/2000/svg">
  <path d="M31.0124 29.2363L24.8628 22.8989C21.9985 20.2445 20.1999 16.6513 19.7994 12.7835C19.5186 10.1252 20.2118 7.45552 21.7524 5.26259C23.0181 3.50094 24.8249 2.1932 26.9025 1.53503C28.5762 1.01424 30.3451 0.865734 32.0832 1.10007C35.7454 1.61139 39.1153 3.36671 41.6186 6.06677L48.2016 12.8644L31.0124 29.2363ZM30.4719 3.16868C29.4963 3.16472 28.526 3.31147 27.596 3.60365C25.9551 4.11318 24.5243 5.13505 23.5167 6.51691C22.2942 8.29469 21.7517 10.447 21.9869 12.5862C22.3397 15.937 23.9049 19.0473 26.3926 21.3412L26.4283 21.3715L31.0634 26.1511L32.0832 25.18L45.1269 12.8037L40.2878 7.80663C38.0978 5.34938 35.1039 3.73742 31.8334 3.25466C31.3817 3.19863 30.9271 3.16992 30.4719 3.16868Z" fill="#F4F4F4" transform="matrix(1, 0, 0, 1, 139.658432, 152.302383)"></path>
  <path d="M49.4095 48.4704L32.7148 31.3601L39.0378 25.2655C41.6914 22.4177 45.305 20.6328 49.1953 20.2482C51.8824 19.9795 54.5781 20.6699 56.7981 22.1955C58.5829 23.46 59.9138 25.2568 60.597 27.324C61.1457 28.9789 61.3198 30.7334 61.1069 32.4627C60.6406 36.0902 58.9065 39.4406 56.2066 41.9308L49.4095 48.4704ZM35.8202 31.3955L36.8401 32.407L49.4758 45.3751L54.4372 40.6006C56.8923 38.4212 58.4818 35.4437 58.9194 32.2047C59.0979 30.7901 58.9621 29.3538 58.5217 27.9967C57.9814 26.3674 56.9333 24.9505 55.5285 23.9505C53.7265 22.7236 51.5422 22.1748 49.3687 22.4028C46.0126 22.7421 42.8989 24.2917 40.6185 26.7575L40.5828 26.7929L35.8202 31.3955Z" fill="#F4F4F4" transform="matrix(1, 0, 0, 1, 139.658432, 152.302383)"></path>
  <path d="M31.6275 61.0018C31.0802 61.0013 30.5334 60.9659 29.9907 60.8956C26.326 60.3879 22.9533 58.6321 20.4502 55.9289L13.8672 49.1364L31.0921 32.7695L37.2366 39.1069C40.1024 41.7602 41.9014 45.354 42.3001 49.2224C42.5808 51.8815 41.8896 54.5522 40.3522 56.7483C39.0743 58.5045 37.2619 59.8076 35.1816 60.4657C34.035 60.8235 32.8398 61.0043 31.6377 61.0018H31.6275ZM21.8066 54.184C23.9976 56.6399 26.991 58.2516 30.261 58.736C31.6821 58.9301 33.129 58.811 34.4984 58.387C36.1417 57.8824 37.574 56.8595 38.5777 55.4737C39.801 53.6963 40.3436 51.5438 40.1074 49.4044C39.7529 46.0575 38.1856 42.9519 35.6967 40.6647L35.6661 40.6293L31.0258 35.8497L30.006 36.8258L16.9624 49.1971L21.8015 54.1891L21.8066 54.184Z" fill="#F4F4F4" transform="matrix(1, 0, 0, 1, 139.658432, 152.302383)"></path>
  <path d="M11.9231 42.0244C9.58735 42.0563 7.30055 41.3592 5.386 40.0316C3.60153 38.7669 2.27066 36.9702 1.58714 34.9031C1.04347 33.2471 0.869476 31.4937 1.07723 29.7644C1.55322 26.1355 3.29396 22.7861 5.99791 20.2963L12.7798 13.7617L29.454 30.867L23.1311 36.9616C20.4777 39.8098 16.864 41.5948 12.9735 41.9789C12.6098 42.0092 12.2529 42.0244 11.9027 42.0244H11.9231ZM7.73161 21.6265C5.27707 23.7971 3.68408 26.7653 3.23926 29.9971C3.06214 31.4138 3.19964 32.8518 3.6421 34.2102C4.18233 35.8395 5.23048 37.2563 6.6353 38.2564C8.44648 39.4836 10.64 40.0288 12.8206 39.7939C16.1764 39.4501 19.2892 37.8992 21.5707 35.4342L21.6064 35.3987L26.3639 30.8114L25.3441 29.7998L12.7033 16.8267L7.73161 21.6265Z" fill="#F4F4F4" transform="matrix(1, 0, 0, 1, 139.658432, 152.302383)"></path>
</svg>