<svg width="205" height="61" viewBox="0 0 205 61" fill="none" xmlns="http://www.w3.org/2000/svg">
<path d="M101.653 29.7577C101.634 27.9624 101.981 26.182 102.673 24.5229C103.31 23.0069 104.244 21.6315 105.421 20.4767C106.614 19.3229 108.032 18.4228 109.587 17.8315C112.994 16.577 116.741 16.577 120.148 17.8315C121.705 18.4229 123.124 19.323 124.319 20.4767C125.495 21.6328 126.429 23.0079 127.067 24.5229C128.4 27.8876 128.4 31.6277 127.067 34.9924C126.43 36.5081 125.496 37.8834 124.319 39.0386C123.124 40.1923 121.705 41.0924 120.148 41.6838C116.741 42.9383 112.994 42.9383 109.587 41.6838C108.032 41.0925 106.614 40.1924 105.421 39.0386C104.243 37.8847 103.308 36.5091 102.673 34.9924C101.981 33.3335 101.634 31.5529 101.653 29.7577ZM106.089 29.7577C106.078 30.979 106.283 32.1929 106.696 33.3436C107.079 34.4133 107.68 35.3933 108.462 36.2226C109.244 37.0518 110.189 37.7126 111.239 38.1636C113.556 39.1079 116.154 39.1079 118.47 38.1636C119.514 37.7184 120.456 37.0681 121.239 36.2518C122.018 35.4187 122.62 34.4382 123.008 33.3689C123.817 31.0456 123.817 28.5203 123.008 26.197C122.619 25.1284 122.017 24.148 121.239 23.3141C120.457 22.4882 119.513 21.829 118.465 21.377C116.149 20.4327 113.551 20.4327 111.234 21.377C110.184 21.828 109.239 22.4888 108.457 23.318C107.675 24.1473 107.074 25.1273 106.691 26.197C106.279 27.3478 106.073 28.5616 106.084 29.783" fill="white"/>
<path d="M134.44 23.3171C134.44 22.201 134.404 21.1524 134.332 20.1712C134.261 19.1951 134.23 18.3049 134.23 17.5007H138.136C138.136 18.1683 138.136 18.8309 138.187 19.4935C138.238 20.156 138.244 20.8388 138.244 21.5166H138.345C138.651 20.8838 139.052 20.3006 139.534 19.7868C140.066 19.1996 140.679 18.6889 141.354 18.2695C142.095 17.8162 142.894 17.464 143.73 17.2225C145.766 16.6638 147.92 16.6989 149.936 17.3237C150.743 17.6073 151.5 18.0153 152.18 18.5325C152.732 18.9526 153.205 19.4663 153.577 20.0498C153.913 20.591 154.183 21.0614 154.398 21.4913C155.202 20.1416 156.281 18.9722 157.564 18.0571C158.949 17.1853 160.571 16.7563 162.21 16.828C163.72 16.7874 165.225 17.0276 166.646 17.5361C167.771 17.9543 168.77 18.6507 169.547 19.5592C170.317 20.5087 170.859 21.6189 171.133 22.8063C171.463 24.2035 171.622 25.635 171.607 27.07V41.9448H167.487V27.2773C167.488 26.4495 167.401 25.6239 167.227 24.8142C167.063 24.0414 166.738 23.311 166.274 22.6697C165.794 22.0203 165.16 21.499 164.428 21.1524C163.499 20.7406 162.487 20.5451 161.47 20.5809C160.617 20.5699 159.771 20.7424 158.992 21.0867C158.219 21.4332 157.525 21.9323 156.952 22.5534C156.349 23.2155 155.883 23.9888 155.581 24.8294C155.232 25.7771 155.06 26.7795 155.071 27.7882V41.9498H150.966V28.1574C150.966 25.4363 150.595 23.5076 149.854 22.3713C149.113 21.235 147.903 20.6601 146.224 20.6466C145.035 20.6152 143.854 20.8467 142.766 21.3244C141.822 21.761 141.005 22.4273 140.39 23.2615C139.745 24.1603 139.28 25.1732 139.019 26.2456C138.707 27.4962 138.556 28.781 138.57 30.0692V42.0105H134.45L134.44 23.3171Z" fill="white"/>
<path d="M177.997 29.7577C177.978 27.9624 178.325 26.182 179.017 24.5229C179.654 23.0069 180.588 21.6315 181.765 20.4767C182.96 19.323 184.379 18.4229 185.936 17.8315C189.343 16.577 193.09 16.577 196.497 17.8315C198.053 18.4242 199.472 19.3241 200.668 20.4767C201.842 21.6331 202.774 23.0082 203.411 24.5229C204.751 27.8863 204.751 31.629 203.411 34.9924C202.775 36.5079 201.843 37.8832 200.668 39.0386C199.472 40.1912 198.053 41.0911 196.497 41.6838C193.09 42.9383 189.343 42.9383 185.936 41.6838C184.379 41.0924 182.96 40.1923 181.765 39.0386C180.587 37.8847 179.652 36.5091 179.017 34.9924C178.325 33.3335 177.978 31.5529 177.997 29.7577ZM182.428 29.7577C182.416 30.9795 182.623 32.1938 183.04 33.3436C183.421 34.4137 184.021 35.3942 184.802 36.2237C185.583 37.0531 186.528 37.7136 187.578 38.1636C189.894 39.1079 192.493 39.1079 194.809 38.1636C195.859 37.7126 196.804 37.0518 197.586 36.2226C198.368 35.3933 198.969 34.4133 199.352 33.3436C200.161 31.0203 200.161 28.495 199.352 26.1717C198.969 25.102 198.368 24.122 197.586 23.2928C196.804 22.4635 195.859 21.8028 194.809 21.3517C192.493 20.4074 189.894 20.4074 187.578 21.3517C186.528 21.8018 185.583 22.4622 184.802 23.2917C184.021 24.1211 183.421 25.1016 183.04 26.1717C182.623 27.3216 182.416 28.5358 182.428 29.7577Z" fill="white"/>
<path d="M81.853 37.9321V17.1953H77.4219V42.0137H98.9607V37.9321H81.853Z" fill="white"/>
<path d="M155.081 37.9766H150.961V42.1897H155.081V37.9766Z" fill="#83C3B8"/>
<path d="M81.8581 17.1719H77.4219V21.7087H81.8581V17.1719Z" fill="#83C3B8"/>
<path d="M109.571 41.6986C109.923 41.8301 110.274 41.9515 110.636 42.0527V37.875H104.359C104.683 38.2888 105.032 38.6824 105.405 39.0534C106.597 40.2073 108.015 41.1074 109.571 41.6986Z" fill="#2732BF"/>
<path d="M200.65 20.4627C199.824 19.6689 198.889 18.9961 197.871 18.4648V23.6086H202.97C202.376 22.4377 201.596 21.3688 200.66 20.4424" fill="#2732BF"/>
<path d="M111.723 10.5305L109.426 12.8086L111.654 15.0188L113.951 12.7406L111.723 10.5305Z" fill="#83C3B8"/>
<path d="M118.238 10.5265L115.941 12.8047L118.17 15.0149L120.467 12.7367L118.238 10.5265Z" fill="#83C3B8"/>
<path d="M31.0124 29.2363L24.8628 22.8989C21.9985 20.2445 20.1999 16.6513 19.7994 12.7835C19.5186 10.1252 20.2118 7.45552 21.7524 5.26259C23.0181 3.50094 24.8249 2.1932 26.9025 1.53503C28.5762 1.01424 30.3451 0.865734 32.0832 1.10007C35.7454 1.61139 39.1153 3.36671 41.6186 6.06677L48.2016 12.8644L31.0124 29.2363ZM30.4719 3.16868C29.4963 3.16472 28.526 3.31147 27.596 3.60365C25.9551 4.11318 24.5243 5.13505 23.5167 6.51691C22.2942 8.29469 21.7517 10.447 21.9869 12.5862C22.3397 15.937 23.9049 19.0473 26.3926 21.3412L26.4283 21.3715L31.0634 26.1511L32.0832 25.18L45.1269 12.8037L40.2878 7.80663C38.0978 5.34938 35.1039 3.73742 31.8334 3.25466C31.3817 3.19863 30.9271 3.16992 30.4719 3.16868Z" fill="#F4F4F4"/>
<path d="M49.4095 48.4704L32.7148 31.3601L39.0378 25.2655C41.6914 22.4177 45.305 20.6328 49.1953 20.2482C51.8824 19.9795 54.5781 20.6699 56.7981 22.1955C58.5829 23.46 59.9138 25.2568 60.597 27.324C61.1457 28.9789 61.3198 30.7334 61.1069 32.4627C60.6406 36.0902 58.9065 39.4406 56.2066 41.9308L49.4095 48.4704ZM35.8202 31.3955L36.8401 32.407L49.4758 45.3751L54.4372 40.6006C56.8923 38.4212 58.4818 35.4437 58.9194 32.2047C59.0979 30.7901 58.9621 29.3538 58.5217 27.9967C57.9814 26.3674 56.9333 24.9505 55.5285 23.9505C53.7265 22.7236 51.5422 22.1748 49.3687 22.4028C46.0126 22.7421 42.8989 24.2917 40.6185 26.7575L40.5828 26.7929L35.8202 31.3955Z" fill="#F4F4F4"/>
<path d="M31.6275 61.0018C31.0802 61.0013 30.5334 60.9659 29.9907 60.8956C26.326 60.3879 22.9533 58.6321 20.4502 55.9289L13.8672 49.1364L31.0921 32.7695L37.2366 39.1069C40.1024 41.7602 41.9014 45.354 42.3001 49.2224C42.5808 51.8815 41.8896 54.5522 40.3522 56.7483C39.0743 58.5045 37.2619 59.8076 35.1816 60.4657C34.035 60.8235 32.8398 61.0043 31.6377 61.0018H31.6275ZM21.8066 54.184C23.9976 56.6399 26.991 58.2516 30.261 58.736C31.6821 58.9301 33.129 58.811 34.4984 58.387C36.1417 57.8824 37.574 56.8595 38.5777 55.4737C39.801 53.6963 40.3436 51.5438 40.1074 49.4044C39.7529 46.0575 38.1856 42.9519 35.6967 40.6647L35.6661 40.6293L31.0258 35.8497L30.006 36.8258L16.9624 49.1971L21.8015 54.1891L21.8066 54.184Z" fill="#F4F4F4"/>
<path d="M11.9231 42.0244C9.58735 42.0563 7.30055 41.3592 5.386 40.0316C3.60153 38.7669 2.27066 36.9702 1.58714 34.9031C1.04347 33.2471 0.869476 31.4937 1.07723 29.7644C1.55322 26.1355 3.29396 22.7861 5.99791 20.2963L12.7798 13.7617L29.454 30.867L23.1311 36.9616C20.4777 39.8098 16.864 41.5948 12.9735 41.9789C12.6098 42.0092 12.2529 42.0244 11.9027 42.0244H11.9231ZM7.73161 21.6265C5.27707 23.7971 3.68408 26.7653 3.23926 29.9971C3.06214 31.4138 3.19964 32.8518 3.6421 34.2102C4.18233 35.8395 5.23048 37.2563 6.6353 38.2564C8.44648 39.4836 10.64 40.0288 12.8206 39.7939C16.1764 39.4501 19.2892 37.8992 21.5707 35.4342L21.6064 35.3987L26.3639 30.8114L25.3441 29.7998L12.7033 16.8267L7.73161 21.6265Z" fill="#F4F4F4"/>
</svg>
